# xmcd CD database file
#
# Track frame offsets:
#	187
#	70270
#	115677
#	165852
#	220640
#	273510
#	300165
#
# Disc length: 4551 seconds
#
# Revision: 1
# Processed by: cddbd v1.5.2PL0 Copyright (c) Steve Scherf et al.
# Submitted via: CDex 1.51
#
DISCID=4f11c507
DTITLE=Eric Dolphy - The Complete Prestige RecordingsCd 08
DYEAR=2996
DGENRE=Jazz
TTITLE0=Number Eight (Potsa Lotsa)
TTITLE1=Bee Vamp (alternate)
TTITLE2=Don't Blame Me
TTITLE3=When Lights Are Low
TTITLE4=Don't Blame Me (alternate)
TTITLE5=Les
TTITLE6=The Way You Look Tonight
EXTD=YEAR: 2996
EXTT0=
EXTT1=
EXTT2=
EXTT3=
EXTT4=
EXTT5=
EXTT6=
PLAYORDER=
